<?xml version="1.0" standalone="no"?>
<!DOCTYPE svg PUBLIC "-//W3C//DTD SVG 20010904//EN"
 "http://www.w3.org/TR/2001/REC-SVG-20010904/DTD/svg10.dtd">
<svg version="1.0" xmlns="http://www.w3.org/2000/svg"
 width="500.000000pt" height="500.000000pt" viewBox="0 0 500.000000 500.000000"
 preserveAspectRatio="xMidYMid meet">

<g transform="translate(0.000000,500.000000) scale(0.100000,-0.100000)"
fill="#000000" stroke="none">
<path d="M2366 4693 c-4 -5 -44 -11 -89 -14 -45 -4 -102 -12 -127 -18 -25 -7
-63 -17 -85 -22 -22 -6 -56 -13 -75 -16 -19 -3 -49 -14 -67 -24 -19 -11 -40
-19 -48 -19 -8 0 -30 -9 -50 -20 -20 -11 -41 -20 -48 -20 -22 0 -227 -110
-321 -172 -48 -32 -91 -58 -96 -58 -4 0 -28 -22 -53 -49 -25 -27 -61 -59 -79
-71 -47 -33 -158 -142 -158 -156 0 -7 -32 -43 -70 -81 -39 -37 -79 -86 -89
-108 -10 -22 -25 -46 -34 -54 -10 -7 -17 -18 -17 -23 0 -6 -10 -24 -22 -41
-26 -36 -118 -223 -118 -238 0 -6 -16 -40 -35 -76 -19 -36 -35 -74 -35 -86 0
-11 -4 -34 -9 -51 -5 -17 -15 -51 -21 -76 -7 -25 -16 -53 -21 -62 -5 -10 -9
-31 -9 -48 0 -16 -4 -30 -10 -30 -14 0 -14 -707 0 -715 6 -3 10 -21 10 -40 0
-19 5 -37 10 -40 6 -3 10 -21 10 -40 0 -19 4 -37 10 -40 5 -3 10 -17 10 -30 0
-13 5 -27 10 -30 6 -3 10 -19 10 -35 0 -17 16 -65 36 -107 84 -179 145 -303
153 -307 5 -3 21 -32 36 -63 30 -62 59 -99 195 -245 94 -102 196 -197 260
-243 23 -16 58 -44 78 -61 20 -17 54 -38 74 -47 20 -10 40 -22 43 -27 6 -10
217 -114 255 -125 14 -4 46 -18 72 -31 26 -13 55 -24 64 -24 9 0 40 -11 68
-24 50 -24 84 -31 196 -42 30 -3 59 -10 64 -15 6 -5 34 -9 62 -9 29 0 56 -4
59 -10 8 -13 372 -13 380 0 3 5 30 10 60 10 30 0 57 4 60 10 3 5 30 10 60 10
30 0 57 5 60 10 3 6 24 10 46 10 22 0 61 11 89 25 27 14 58 25 69 25 12 0 51
14 88 31 38 17 91 42 118 54 138 63 205 98 205 106 0 5 8 9 18 10 9 0 12 3 6
5 -7 3 -28 -4 -48 -16 -20 -11 -41 -20 -47 -20 -5 0 -43 -16 -83 -35 -41 -19
-81 -35 -89 -35 -8 0 -34 -7 -58 -16 -24 -8 -64 -20 -89 -25 -25 -6 -63 -15
-85 -20 -22 -6 -67 -15 -100 -21 -77 -14 -587 -14 -685 0 -125 18 -174 28
-196 40 -30 16 -106 42 -126 42 -9 0 -49 16 -89 35 -41 19 -79 35 -85 35 -14
0 -154 72 -191 98 -16 11 -53 32 -83 47 -77 39 -100 58 -297 250 -132 128
-191 194 -241 269 -60 88 -182 308 -182 328 0 4 -11 32 -25 62 -14 30 -25 64
-25 76 0 11 -8 35 -17 53 -16 31 -29 77 -40 145 -3 18 -9 35 -14 38 -5 3 -9
36 -9 73 0 37 -5 72 -10 77 -7 7 -9 79 -6 210 5 226 19 363 45 429 8 18 16 50
44 160 12 49 177 385 188 385 5 0 9 6 9 13 0 6 16 32 35 57 19 25 49 65 67 90
42 60 109 133 182 200 33 30 83 78 111 105 27 28 66 61 85 75 19 13 43 32 53
41 10 9 39 27 65 40 26 13 65 35 87 49 47 31 175 92 227 109 21 7 40 17 43 22
4 5 15 9 26 9 10 0 27 4 37 9 9 5 37 14 62 21 25 6 66 18 92 27 26 8 51 12 56
9 5 -3 22 -1 38 4 109 34 131 36 439 34 259 -2 320 -5 370 -19 33 -9 78 -19
100 -21 22 -2 59 -13 82 -24 24 -11 55 -20 70 -20 16 0 55 -14 87 -30 32 -17
64 -30 71 -30 7 0 39 -14 70 -30 32 -17 60 -28 63 -25 3 3 3 7 1 8 -17 14
-312 157 -324 157 -8 0 -29 9 -47 20 -18 11 -47 20 -65 20 -17 0 -35 5 -38 10
-3 6 -17 10 -30 10 -13 0 -27 5 -30 10 -3 6 -21 10 -40 10 -19 0 -37 5 -40 10
-3 6 -21 10 -40 10 -19 0 -37 5 -40 10 -3 6 -42 10 -85 10 -43 0 -82 5 -85 10
-7 12 -368 14 -379 3z"/>
<path d="M2380 4400 c-8 -5 -29 -10 -47 -10 -17 0 -35 -4 -38 -10 -3 -5 -21
-10 -40 -10 -19 0 -37 -4 -40 -10 -3 -5 -21 -10 -40 -10 -19 0 -37 -4 -40 -10
-3 -5 -16 -10 -29 -10 -12 0 -26 -4 -31 -8 -6 -5 -26 -15 -45 -22 -128 -47
-374 -182 -410 -225 -7 -8 -18 -15 -24 -15 -7 0 -30 -18 -51 -40 -21 -22 -44
-40 -50 -40 -13 0 -155 -142 -155 -156 0 -5 -25 -34 -55 -64 -30 -30 -55 -59
-55 -66 0 -6 -9 -19 -20 -29 -11 -10 -20 -24 -20 -30 0 -7 -7 -18 -15 -25 -15
-13 -104 -188 -128 -255 -9 -22 -30 -78 -47 -125 -18 -47 -33 -101 -34 -121
-1 -20 -8 -44 -15 -53 -8 -9 -11 -28 -8 -43 3 -15 -1 -39 -8 -53 -17 -34 -14
-442 3 -484 7 -16 10 -36 7 -46 -3 -9 1 -30 10 -46 8 -16 15 -40 15 -54 0 -32
54 -202 80 -253 11 -22 20 -45 20 -53 0 -7 11 -29 24 -49 14 -20 41 -69 62
-110 20 -41 40 -75 45 -75 5 0 9 -6 9 -13 0 -7 45 -59 100 -115 90 -92 110
-107 207 -155 59 -29 128 -59 153 -66 25 -7 59 -17 76 -22 17 -5 47 -9 68 -9
20 0 53 -7 73 -15 45 -19 84 -19 130 0 19 8 51 15 70 15 51 0 233 63 233 81 0
4 8 10 18 14 33 11 110 92 136 143 44 88 33 185 -37 316 -14 26 -37 61 -51 77
-14 16 -26 33 -26 39 0 5 -64 74 -142 153 -136 135 -168 173 -168 197 0 6 -8
20 -19 31 -43 46 -43 232 0 278 11 11 19 24 19 29 0 11 156 160 196 187 47 32
277 145 296 145 9 0 20 5 23 10 3 6 13 10 21 10 8 0 33 9 57 20 46 22 135 48
307 90 73 18 141 31 215 40 39 5 95 14 125 20 30 6 78 13 105 16 28 3 59 9 70
14 11 5 74 12 140 14 66 3 170 10 230 16 61 6 153 13 205 16 52 3 99 10 104
15 6 5 41 9 78 9 59 0 68 2 68 18 0 37 -132 260 -185 312 -14 14 -25 31 -25
39 0 14 -197 211 -275 276 -98 81 -353 235 -390 235 -7 0 -39 13 -71 29 -55
27 -87 37 -189 63 -22 5 -54 14 -71 19 -17 5 -42 9 -57 9 -14 0 -29 5 -32 10
-8 13 -594 13 -615 0z"/>
<path d="M4256 3223 c-4 -5 -40 -11 -79 -15 -119 -12 -209 -26 -257 -38 -25
-6 -72 -15 -105 -20 -78 -11 -114 -20 -121 -31 -3 -5 -25 -9 -49 -9 -24 0 -47
-4 -50 -10 -3 -5 -21 -10 -40 -10 -19 0 -37 -4 -40 -10 -3 -5 -22 -10 -40 -10
-19 0 -49 -8 -67 -18 -47 -26 -120 -52 -145 -52 -12 0 -28 -7 -36 -15 -8 -8
-33 -21 -55 -28 -48 -17 -136 -75 -173 -114 -71 -74 -89 -166 -47 -240 19 -34
110 -123 228 -222 47 -39 155 -111 228 -151 23 -13 42 -27 42 -32 0 -4 6 -8
13 -8 7 0 23 -9 35 -20 12 -11 24 -20 27 -20 4 0 26 -13 50 -30 24 -16 46 -30
49 -30 6 0 134 -85 166 -110 14 -11 28 -20 32 -20 4 0 47 -39 96 -87 82 -81
126 -146 134 -198 3 -17 8 -15 46 19 23 21 42 44 42 51 0 6 9 20 20 30 11 10
20 22 20 28 0 5 11 22 25 38 13 16 28 44 33 62 5 18 23 54 41 81 17 28 31 58
31 68 0 17 33 84 51 103 5 5 9 26 9 46 0 21 5 41 10 44 6 3 10 21 10 40 0 19
5 37 10 40 6 3 10 16 10 29 0 12 4 26 9 31 20 21 40 474 22 510 -6 11 -12 47
-15 80 -2 33 -9 80 -16 105 -6 25 -14 59 -16 75 -11 64 -23 75 -79 75 -28 0
-55 -3 -59 -7z"/>
<path d="M3656 1045 c-25 -19 -16 -19 20 0 16 8 22 15 14 15 -8 -1 -24 -7 -34
-15z"/>
<path d="M1570 375 l0 -165 29 0 29 0 3 85 c4 87 9 98 45 109 40 12 54 -16 54
-110 l0 -84 31 0 31 0 -4 101 c-3 92 -5 103 -27 120 -28 23 -78 25 -109 3
l-22 -15 0 60 0 61 -30 0 -30 0 0 -165z"/>
<path d="M1864 525 c-4 -9 0 -23 8 -31 20 -20 50 -7 46 20 -4 26 -45 35 -54
11z"/>
<path d="M3230 479 l0 -60 -22 15 c-32 23 -73 20 -105 -8 -26 -22 -28 -30 -28
-96 0 -66 2 -74 28 -96 33 -28 73 -31 100 -7 18 17 19 17 32 0 6 -9 22 -17 34
-17 21 0 21 3 21 165 l0 165 -30 0 -30 0 0 -61z m-12 -92 c6 -5 12 -31 12 -58
0 -41 -4 -51 -25 -65 -23 -15 -27 -15 -50 0 -21 14 -25 24 -25 66 0 69 39 95
88 57z"/>
<path d="M540 495 c0 -23 4 -25 45 -25 l45 0 0 -130 0 -130 25 0 25 0 0 130 0
130 45 0 c41 0 45 2 45 25 l0 25 -115 0 -115 0 0 -25z"/>
<path d="M2650 365 l0 -155 30 0 30 0 0 155 0 155 -30 0 -30 0 0 -155z"/>
<path d="M3890 476 c-5 -13 -19 -31 -30 -39 -23 -16 -20 -37 6 -37 11 0 14
-17 14 -78 0 -95 14 -115 77 -110 31 2 39 7 41 27 3 19 0 22 -13 17 -9 -3 -25
-1 -36 4 -16 9 -19 22 -19 75 l0 65 35 0 c31 0 35 3 35 25 0 22 -4 25 -35 25
-31 0 -35 3 -35 25 0 33 -27 33 -40 1z"/>
<path d="M860 437 c-33 -16 -50 -52 -50 -105 0 -80 40 -122 118 -122 61 0 82
10 82 36 0 21 -3 23 -26 14 -58 -22 -114 -1 -114 43 0 14 12 17 76 17 l77 0
-6 42 c-10 75 -86 111 -157 75z m94 -49 c21 -29 12 -38 -40 -38 -36 0 -44 3
-44 18 0 43 58 57 84 20z"/>
<path d="M1113 440 c-14 -6 -21 -15 -17 -24 4 -11 19 -15 57 -13 43 2 52 -1
55 -17 5 -24 -14 -36 -58 -36 -53 0 -80 -23 -80 -69 0 -45 24 -71 66 -71 16 0
40 7 53 17 22 15 25 15 36 0 7 -10 20 -17 29 -17 14 0 16 14 16 99 0 96 -1
100 -26 120 -28 22 -90 27 -131 11z m97 -143 c0 -29 -18 -47 -47 -47 -28 0
-45 28 -32 52 6 12 21 18 44 18 30 0 35 -3 35 -23z"/>
<path d="M1370 423 c-56 -50 -50 -167 10 -198 54 -28 130 -16 130 20 0 21 -3
22 -47 17 -55 -6 -73 11 -73 68 0 58 30 84 82 69 22 -6 28 -4 34 13 8 27 -10
38 -63 38 -33 0 -50 -7 -73 -27z"/>
<path d="M1860 330 l0 -120 30 0 30 0 0 120 0 120 -30 0 -30 0 0 -120z"/>
<path d="M2000 330 l0 -120 25 0 c24 0 25 2 25 64 0 106 30 153 82 125 15 -8
18 -23 18 -99 l0 -90 30 0 30 0 0 95 c0 88 -2 98 -25 120 -28 29 -74 33 -110
9 -23 -15 -25 -15 -31 0 -3 9 -15 16 -25 16 -18 0 -19 -9 -19 -120z"/>
<path d="M2295 425 c-30 -29 -32 -64 -6 -96 18 -22 18 -25 3 -42 -13 -15 -14
-22 -4 -38 11 -18 10 -23 -12 -40 -33 -26 -33 -52 0 -78 46 -36 171 -23 194
19 15 27 12 76 -5 90 -8 6 -41 14 -75 17 -41 4 -60 10 -60 19 0 8 11 14 25 14
69 0 116 46 102 100 -3 13 1 21 14 25 10 4 19 13 19 21 0 11 -18 14 -85 14
-78 0 -88 -2 -110 -25z m93 -14 c8 -5 12 -22 10 -42 -3 -30 -6 -34 -33 -34
-27 0 -30 4 -33 34 -3 32 9 51 33 51 6 0 16 -4 23 -9z m40 -228 c3 -18 -4 -24
-37 -34 -64 -19 -115 13 -79 49 8 8 33 12 63 10 43 -3 50 -6 53 -25z"/>
<path d="M2790 330 l0 -120 29 0 29 0 3 85 c4 87 9 98 45 109 40 12 54 -16 54
-110 l0 -84 31 0 31 0 -4 101 c-3 92 -5 103 -27 120 -28 23 -80 25 -107 4 -25
-19 -34 -19 -34 0 0 9 -9 15 -25 15 l-25 0 0 -120z"/>
<path d="M3360 355 c0 -88 2 -98 25 -120 28 -29 70 -32 104 -8 22 15 25 15 36
0 7 -10 20 -17 29 -17 14 0 16 15 16 120 l0 120 -25 0 c-24 0 -25 -3 -25 -54
0 -79 -10 -115 -36 -132 -17 -12 -27 -13 -43 -4 -19 10 -21 20 -21 100 l0 90
-30 0 -30 0 0 -95z"/>
<path d="M3662 434 c-18 -12 -22 -24 -20 -52 3 -33 9 -40 53 -64 32 -17 50
-34 50 -45 0 -15 -8 -18 -52 -16 -46 2 -53 0 -53 -16 0 -23 19 -31 74 -31 55
0 96 30 96 69 0 32 -17 50 -78 80 -55 28 -50 46 14 46 37 0 49 4 52 16 6 31
-97 40 -136 13z"/>
<path d="M4060 330 l0 -120 30 0 30 0 0 71 c0 86 10 106 55 115 28 5 35 11 35
30 0 31 -39 33 -65 4 -10 -11 -21 -20 -25 -20 -4 0 -10 9 -13 20 -3 12 -14 20
-26 20 -20 0 -21 -5 -21 -120z"/>
<path d="M4230 446 c0 -3 21 -58 46 -122 40 -98 45 -119 35 -140 -7 -15 -22
-27 -41 -30 -21 -5 -30 -12 -30 -25 0 -15 7 -19 36 -19 49 0 82 38 115 131 15
41 38 104 52 142 l26 67 -32 0 c-32 0 -33 -1 -61 -92 l-28 -93 -14 50 c-30
114 -39 130 -72 133 -18 2 -32 1 -32 -2z"/>
</g>
</svg>
