<?xml version="1.0" standalone="no"?>
<!DOCTYPE svg PUBLIC "-//W3C//DTD SVG 20010904//EN"
 "http://www.w3.org/TR/2001/REC-SVG-20010904/DTD/svg10.dtd">
<svg version="1.0" xmlns="http://www.w3.org/2000/svg"
 width="240.000000pt" height="194.000000pt" viewBox="0 0 240.000000 194.000000"
 preserveAspectRatio="xMidYMid meet">

<g transform="translate(0.000000,194.000000) scale(0.100000,-0.100000)"
fill="#000000" stroke="none">
<path d="M1161 1795 c-19 -14 -85 -41 -145 -61 -181 -60 -252 -103 -271 -165
-4 -13 -19 -21 -46 -25 -58 -10 -106 -50 -173 -145 -33 -46 -81 -106 -107
-134 l-48 -50 15 -55 c9 -34 14 -104 14 -185 0 -148 15 -219 55 -257 21 -19
25 -32 25 -83 0 -70 16 -102 115 -235 34 -47 70 -102 78 -122 15 -36 18 -38
62 -38 27 0 98 -17 173 -42 142 -47 233 -55 287 -26 27 14 31 14 54 -1 42 -27
130 -19 260 24 63 20 135 40 159 44 41 5 46 9 58 45 8 21 46 83 84 137 101
141 125 191 125 259 0 46 5 62 27 88 39 47 48 90 48 242 0 74 4 151 10 170 9
32 8 36 -26 64 -20 16 -74 80 -120 142 -90 123 -145 171 -206 181 -32 5 -42
12 -59 44 -26 53 -74 81 -219 128 -68 23 -138 50 -157 61 -19 11 -35 20 -36
20 -1 -1 -18 -12 -36 -25z m208 -75 c161 -48 214 -83 228 -152 5 -23 9 -27 29
-22 62 16 119 -30 236 -188 44 -59 92 -118 107 -130 l27 -23 -7 -170 c-7 -192
-21 -245 -70 -271 -24 -12 -28 -18 -19 -34 17 -31 11 -98 -11 -143 -12 -23
-51 -82 -87 -132 -35 -49 -75 -111 -88 -136 -21 -43 -28 -48 -76 -59 -29 -7
-91 -26 -138 -42 -47 -16 -114 -32 -150 -35 -60 -5 -68 -3 -95 19 l-29 25 -34
-23 c-50 -35 -116 -32 -251 11 -61 19 -140 39 -175 46 -48 8 -67 16 -71 29 -3
10 -41 68 -85 130 -106 150 -123 198 -95 271 4 10 -3 19 -20 27 -51 24 -67 86
-75 287 -3 100 -9 186 -13 191 -3 6 5 22 19 35 15 13 47 53 72 89 109 155 159
200 224 200 29 0 35 5 49 39 24 58 83 94 227 142 70 23 144 52 166 64 38 23
39 23 70 4 18 -10 78 -32 135 -49z"/>
<path d="M1170 1530 c0 -27 4 -50 9 -50 5 0 8 20 5 45 -4 38 -2 45 14 45 39 0
55 -45 26 -74 -8 -9 -11 -16 -5 -16 6 0 18 11 27 25 15 23 15 27 0 50 -11 17
-26 25 -46 25 -29 0 -30 -1 -30 -50z"/>
<path d="M1286 1533 c-5 -42 -2 -64 8 -52 7 9 13 99 6 99 -4 0 -10 -21 -14
-47z"/>
<path d="M1041 1553 c1 -17 18 -47 18 -35 1 9 16 2 41 -18 51 -40 53 -26 2 16
-46 38 -62 48 -61 37z"/>
<path d="M1386 1514 c-19 -55 -18 -54 -8 -54 9 0 35 90 28 97 -2 2 -11 -17
-20 -43z"/>
<path d="M1428 1538 c10 -13 9 -18 -3 -28 -19 -16 -19 -31 1 -56 15 -19 15
-12 -1 29 -5 12 -2 17 10 17 21 0 17 41 -5 48 -12 4 -13 3 -2 -10z"/>
<path d="M1121 1524 c0 -11 3 -14 6 -6 3 7 2 16 -1 19 -3 4 -6 -2 -5 -13z"/>
<path d="M1325 1520 c3 -5 8 -10 11 -10 2 0 4 5 4 10 0 6 -5 10 -11 10 -5 0
-7 -4 -4 -10z"/>
<path d="M947 1514 c-3 -5 5 -28 17 -51 16 -33 24 -40 36 -33 9 6 11 10 3 10
-7 0 -21 19 -31 41 -11 23 -22 38 -25 33z"/>
<path d="M995 1490 c-3 -5 -1 -10 4 -10 6 0 11 5 11 10 0 6 -2 10 -4 10 -3 0
-8 -4 -11 -10z"/>
<path d="M1492 1464 c-20 -20 -28 -30 -17 -23 11 8 24 20 28 27 17 25 27 11
21 -28 -4 -27 -3 -40 5 -40 7 0 11 20 11 50 0 28 -2 50 -5 50 -3 0 -22 -16
-43 -36z"/>
<path d="M890 1486 c0 -3 10 -21 22 -41 17 -31 19 -38 7 -46 -11 -7 -11 -9 4
-9 22 0 22 19 0 65 -14 29 -33 47 -33 31z"/>
<path d="M1060 1475 c0 -8 4 -15 10 -15 5 0 7 7 4 15 -4 8 -8 15 -10 15 -2 0
-4 -7 -4 -15z"/>
<path d="M1330 1480 c-9 -6 -10 -10 -3 -10 6 0 15 5 18 10 8 12 4 12 -15 0z"/>
<path d="M1586 1414 c-21 -26 -25 -39 -17 -47 8 -8 11 -8 11 2 0 7 12 28 26
47 35 45 17 44 -20 -2z"/>
<path d="M790 1410 c-8 -5 -10 -10 -5 -10 6 0 17 5 25 10 8 5 11 10 5 10 -5 0
-17 -5 -25 -10z"/>
<path d="M1168 1382 c9 -10 19 -17 21 -16 6 5 -20 34 -30 34 -5 0 -1 -8 9 -18z"/>
<path d="M1246 1385 c-11 -8 -15 -15 -9 -15 6 0 16 7 23 15 16 19 11 19 -14 0z"/>
<path d="M772 1380 c3 -10 18 -15 43 -15 44 0 58 -20 23 -34 -15 -6 -17 -10
-7 -10 23 -1 43 25 35 45 -5 13 -15 15 -40 11 -19 -3 -39 0 -46 6 -10 9 -11 9
-8 -3z"/>
<path d="M1185 1346 c-11 -9 -15 -16 -9 -16 5 0 15 5 21 11 8 8 17 8 32 0 14
-8 21 -8 21 -1 0 5 -4 10 -9 10 -5 0 -15 2 -23 5 -7 3 -22 -1 -33 -9z"/>
<path d="M1597 1349 c7 -7 15 -10 18 -7 3 3 -2 9 -12 12 -14 6 -15 5 -6 -5z"/>
<path d="M1695 1338 c-2 -7 -3 -24 -2 -38 2 -19 -3 -25 -17 -23 -12 1 -15 -2
-8 -9 20 -20 42 0 42 36 0 24 5 36 18 39 12 4 11 5 -6 6 -12 0 -24 -5 -27 -11z"/>
<path d="M1740 1320 c0 -5 5 -10 11 -10 5 0 7 5 4 10 -3 6 -8 10 -11 10 -2 0
-4 -4 -4 -10z"/>
<path d="M720 1309 c0 -5 4 -8 9 -4 5 3 15 0 23 -7 11 -12 31 -14 63 -8 13 2
-55 28 -77 29 -10 1 -18 -4 -18 -10z"/>
<path d="M745 1260 c9 -16 18 -30 21 -30 2 0 -2 14 -11 30 -9 17 -18 30 -21
30 -2 0 2 -13 11 -30z"/>
<path d="M1171 1281 c-27 -17 -18 -101 13 -124 7 -5 5 -12 -7 -20 -52 -34 -52
-32 -13 -55 25 -15 38 -31 42 -52 7 -31 24 -42 24 -14 0 21 63 84 84 84 32 0
17 24 -35 59 -33 22 -35 27 -26 52 20 51 -36 99 -82 70z"/>
<path d="M1726 1254 c-22 -21 -20 -47 5 -70 19 -17 23 -17 47 -3 15 8 28 24
30 34 3 18 2 18 -13 -2 -19 -26 -63 -31 -72 -8 -7 19 24 55 47 55 9 0 22 -6
30 -12 12 -11 12 -10 1 5 -17 21 -54 22 -75 1z"/>
<path d="M645 1219 c-4 -11 -4 -23 -1 -26 3 -4 6 1 6 10 0 22 18 21 58 -3 17
-11 32 -15 32 -10 0 8 -70 50 -84 50 -3 0 -8 -9 -11 -21z"/>
<path d="M798 1175 c-3 -3 1 -22 8 -43 20 -57 17 -111 -12 -172 -14 -30 -28
-80 -31 -110 -4 -46 -1 -61 19 -90 43 -64 101 -80 243 -67 39 3 61 4 50 1 -11
-3 -37 -10 -58 -15 -21 -6 -35 -14 -32 -19 4 -6 -3 -10 -15 -10 -31 0 -10 -33
34 -54 44 -21 81 -20 133 3 23 11 44 17 47 13 3 -3 -5 -24 -19 -47 -13 -23
-21 -45 -18 -49 11 -11 133 -7 133 5 0 6 -10 29 -22 50 -12 21 -19 41 -16 44
3 3 25 -4 49 -15 71 -32 126 -23 173 29 19 21 19 21 -3 21 -12 0 -20 4 -16 10
3 5 -11 13 -32 19 -21 5 -47 12 -58 15 -11 3 14 2 55 -1 101 -9 138 -6 179 15
82 41 99 126 47 241 -25 56 -28 72 -23 125 3 34 9 71 13 84 5 18 2 22 -15 22
-38 0 -101 -32 -123 -63 -42 -59 -24 -138 52 -231 25 -30 40 -58 40 -75 l-1
-26 -13 30 c-8 17 -34 54 -59 83 -51 59 -63 97 -53 173 l7 50 -28 -7 c-74 -18
-113 -56 -113 -112 0 -46 29 -83 103 -132 61 -41 48 -46 -25 -9 -34 17 -58 42
-84 85 -10 17 -13 16 -33 -16 -12 -21 -21 -52 -21 -77 0 -34 5 -46 32 -68 30
-26 35 -26 110 -20 66 6 78 5 78 -8 0 -22 -26 -28 -94 -21 -34 3 -78 2 -98 -4
l-36 -10 -4 103 c-3 96 -14 135 -38 135 -17 0 -30 -67 -30 -153 0 -81 -2 -88
-17 -81 -10 4 -61 8 -113 9 -84 0 -95 2 -98 19 -4 17 1 18 77 11 l81 -7 31 32
c29 28 31 35 25 76 -6 44 -31 94 -47 94 -5 0 -9 -6 -9 -14 0 -26 -41 -65 -96
-92 -30 -15 -57 -25 -59 -22 -3 3 22 22 56 43 91 56 117 111 84 175 -16 31
-49 52 -98 64 l-29 7 7 -55 c9 -70 -7 -117 -56 -171 -21 -23 -45 -57 -53 -76
-15 -33 -15 -33 -16 -7 0 16 15 45 39 75 55 70 71 106 71 157 0 36 -6 52 -31
80 -34 39 -113 69 -131 51z m100 -33 c30 -19 52 -63 52 -102 0 -43 -21 -87
-69 -145 -41 -50 -52 -92 -32 -124 7 -10 11 -6 16 17 3 17 31 61 60 97 58 70
72 110 61 175 -6 38 -5 40 20 40 16 0 39 -13 60 -34 63 -63 40 -119 -79 -194
-87 -55 -99 -70 -82 -102 13 -23 14 -24 15 -4 0 12 7 27 15 34 13 11 13 15 3
22 -9 6 -6 7 9 3 31 -9 114 36 152 82 l30 37 16 -37 c18 -43 19 -58 4 -91 -18
-38 -59 -51 -126 -37 -61 12 -83 4 -83 -30 0 -22 -1 -22 110 -24 47 -1 97 -5
113 -9 l27 -8 0 95 c0 53 5 108 11 124 10 27 11 27 22 8 6 -11 13 -66 15 -123
l4 -104 27 8 c14 5 66 9 115 9 75 0 90 3 100 18 9 15 7 21 -9 33 -11 8 -26 12
-33 9 -8 -3 -38 -8 -67 -11 -48 -6 -56 -4 -79 19 -28 28 -33 64 -15 116 13 38
21 39 39 5 18 -32 53 -57 111 -80 24 -9 51 -23 60 -31 14 -12 18 -12 23 -1 3
7 3 0 -1 -17 -4 -23 -3 -27 7 -19 23 22 5 49 -59 91 -127 83 -152 124 -116
192 14 28 25 36 75 51 l26 7 -4 -63 c-4 -54 -1 -70 21 -106 14 -24 35 -52 47
-63 28 -25 50 -68 50 -96 0 -18 2 -19 15 -9 25 21 18 65 -20 112 -113 141
-100 255 34 283 31 7 33 5 26 -11 -4 -11 -10 -46 -12 -79 -4 -51 0 -72 23
-125 49 -116 34 -199 -43 -235 -31 -15 -54 -17 -155 -11 -99 6 -123 5 -153
-10 -35 -16 -51 -43 -17 -29 45 19 172 15 172 -5 0 -15 -68 -31 -107 -26 l-38
6 33 -12 c26 -9 45 -8 83 1 59 16 71 10 33 -16 -36 -23 -107 -22 -153 1 -49
26 -63 7 -33 -44 12 -21 22 -41 22 -44 0 -4 -25 -6 -55 -6 -30 0 -55 2 -55 5
0 3 9 24 21 47 26 51 15 68 -33 45 -71 -33 -137 -30 -170 10 -12 14 -10 15 17
9 71 -16 104 -18 121 -7 16 9 12 10 -19 5 -37 -6 -97 10 -97 27 0 20 128 24
174 4 14 -6 17 -5 11 4 -19 32 -75 42 -189 35 -130 -8 -173 4 -206 58 -28 44
-22 123 15 197 24 46 27 62 22 110 -3 31 -9 67 -13 80 -7 22 -5 23 27 16 18
-4 44 -14 57 -23z m607 -322 c3 -5 2 -10 -4 -10 -5 0 -13 5 -16 10 -3 6 -2 10
4 10 5 0 13 -4 16 -10z m-575 -4 c0 -2 -8 -10 -17 -17 -16 -13 -17 -12 -4 4
13 16 21 21 21 13z"/>
<path d="M620 1163 c0 -5 20 -16 45 -25 25 -10 45 -14 45 -10 0 5 -17 14 -37
22 -21 8 -41 16 -45 18 -5 2 -8 0 -8 -5z"/>
<path d="M1810 1154 c-14 -7 -33 -13 -42 -14 -10 0 -18 -4 -18 -9 0 -14 52 -8
68 7 8 7 18 10 23 7 5 -4 9 -2 9 4 0 18 -15 20 -40 5z"/>
<path d="M1851 1114 c0 -11 3 -14 6 -6 3 7 2 16 -1 19 -3 4 -6 -2 -5 -13z"/>
<path d="M602 1108 c-16 -16 -15 -33 3 -48 13 -11 20 -9 40 10 21 20 27 21 41
9 15 -12 17 -12 12 1 -6 21 -42 24 -58 5 -7 -8 -19 -15 -26 -15 -17 0 -18 27
-1 33 6 2 9 7 6 10 -3 4 -11 1 -17 -5z"/>
<path d="M1766 1087 c3 -10 9 -15 12 -12 3 3 0 11 -7 18 -10 9 -11 8 -5 -6z"/>
<path d="M1823 1057 c-24 -6 -43 -14 -43 -19 0 -4 11 -6 25 -2 14 3 36 7 50 8
24 1 33 11 18 19 -5 2 -27 -1 -50 -6z"/>
<path d="M658 1003 c-14 -13 -20 -14 -32 -4 -17 14 -46 8 -46 -8 0 -6 7 -8 16
-4 9 3 20 0 24 -7 7 -11 13 -10 34 4 14 9 26 21 26 26 0 14 -3 13 -22 -7z"/>
<path d="M1867 1006 c-6 -14 -15 -17 -42 -14 -27 3 -32 1 -23 -9 21 -26 86 -2
76 27 -3 10 -6 9 -11 -4z"/>
<path d="M600 950 c36 -12 70 -12 70 0 0 6 -21 10 -47 9 -39 -1 -43 -2 -23 -9z"/>
<path d="M1790 930 c0 -5 22 -9 50 -7 65 3 65 17 0 17 -27 0 -50 -4 -50 -10z"/>
<path d="M615 890 c3 -5 8 -10 11 -10 2 0 4 5 4 10 0 6 -5 10 -11 10 -5 0 -7
-4 -4 -10z"/>
<path d="M1790 881 c0 -6 17 -11 39 -11 42 0 63 -16 40 -31 -9 -6 -18 -3 -26
7 -10 14 -14 14 -37 -1 -14 -10 -26 -21 -26 -26 0 -5 12 -2 26 7 22 15 27 15
35 3 12 -19 43 0 47 30 3 15 -2 21 -16 21 -11 0 -34 3 -51 6 -20 4 -31 3 -31
-5z"/>
<path d="M628 862 c-27 -2 -48 -8 -48 -13 0 -9 88 -3 99 7 8 8 -5 9 -51 6z"/>
<path d="M650 780 c8 -5 1 -16 -22 -35 -39 -32 -9 -25 32 8 36 28 37 35 4 35
-15 0 -21 -4 -14 -8z"/>
<path d="M1808 773 c7 -3 16 -2 19 1 4 3 -2 6 -13 5 -11 0 -14 -3 -6 -6z"/>
<path d="M1845 759 c-11 -4 -32 -8 -47 -8 -16 -1 -28 -6 -28 -12 0 -6 7 -8 16
-5 9 3 25 6 37 6 23 0 55 16 47 23 -3 3 -14 1 -25 -4z"/>
<path d="M1806 705 c22 -17 7 -19 -30 -5 -14 5 -26 6 -26 2 0 -4 20 -14 45
-23 33 -12 45 -13 45 -4 0 13 -32 45 -45 45 -5 0 0 -7 11 -15z"/>
<path d="M668 693 c-54 -22 -47 -35 7 -15 25 9 45 20 45 24 0 10 -8 9 -52 -9z"/>
<path d="M725 662 c-15 -11 -44 -102 -34 -108 5 -3 9 -1 9 4 0 5 14 15 30 22
17 7 33 17 36 22 4 5 -8 2 -25 -6 -35 -19 -37 -13 -16 38 16 38 16 40 0 28z"/>
<path d="M1739 654 c6 -12 7 -25 3 -29 -4 -3 -1 -5 7 -3 7 2 16 -3 18 -10 4
-9 -5 -11 -36 -6 -24 4 -41 3 -41 -3 0 -5 23 -10 51 -12 55 -2 56 2 9 59 -17
20 -19 21 -11 4z"/>
<path d="M673 638 c-13 -6 -23 -15 -23 -20 0 -5 11 -1 25 8 37 24 35 30 -2 12z"/>
<path d="M1667 573 c-3 -4 7 -17 22 -27 l26 -20 -20 25 c-11 13 -21 25 -21 27
-1 2 -4 0 -7 -5z"/>
<path d="M748 539 l-33 -31 36 26 c23 17 43 24 55 20 16 -5 16 -4 4 5 -22 16
-26 14 -62 -20z"/>
<path d="M791 498 c-18 -21 -29 -38 -24 -38 14 0 66 57 62 67 -2 5 -19 -8 -38
-29z"/>
<path d="M1657 487 c15 -19 30 -32 32 -30 3 2 -6 15 -20 29 l-24 26 46 -7 c30
-4 49 -3 53 4 5 8 -12 11 -54 11 l-62 0 29 -33z"/>
<path d="M1087 413 c-4 -15 -9 -38 -13 -50 -4 -14 -2 -23 5 -23 6 0 10 3 9 8
-1 4 2 24 7 45 4 21 5 40 3 43 -3 2 -8 -8 -11 -23z"/>
<path d="M1354 418 c-4 -7 -4 -10 1 -6 4 4 15 2 23 -5 12 -10 14 -9 11 2 -7
20 -26 25 -35 9z"/>
<path d="M894 399 c0 -21 17 -31 36 -19 8 5 9 13 4 21 -13 21 -40 19 -40 -2z"/>
<path d="M1162 403 c-5 -10 -7 -24 -5 -30 8 -23 18 -14 18 17 0 35 -1 36 -13
13z"/>
<path d="M1198 395 c2 -14 -3 -37 -12 -52 l-17 -28 25 27 c16 18 22 34 19 48
-8 30 -21 34 -15 5z"/>
<path d="M1507 399 c-5 -20 15 -31 38 -23 11 5 13 10 5 19 -5 6 -7 15 -4 18 4
3 -3 5 -14 4 -12 0 -23 -9 -25 -18z"/>
<path d="M1264 385 c-9 -14 -13 -32 -9 -45 10 -31 22 -24 17 10 -2 17 1 37 8
45 7 8 10 15 6 15 -3 0 -13 -11 -22 -25z"/>
<path d="M1380 382 c0 -5 7 -15 15 -22 8 -7 15 -8 15 -2 0 5 -7 15 -15 22 -8
7 -15 8 -15 2z"/>
<path d="M1289 367 c7 -9 11 -24 7 -32 -3 -8 -1 -15 5 -15 16 0 6 53 -11 58
-13 5 -13 3 -1 -11z"/>
<path d="M1360 329 c0 -5 5 -7 10 -4 6 3 10 8 10 11 0 2 -4 4 -10 4 -5 0 -10
-5 -10 -11z"/>
</g>
</svg>
